<svg width="240" height="234" viewBox="0 0 240 234" fill="none" xmlns="http://www.w3.org/2000/svg">
<path fill-rule="evenodd" clip-rule="evenodd" d="M42.5 1.88608e-05H197.5C203.083 -0.00524284 208.612 1.09046 213.77 3.22442C218.929 5.35838 223.616 8.48871 227.564 12.4362C231.511 16.3838 234.642 21.071 236.776 26.2297C238.91 31.3885 240.005 36.9174 240 42.5V191.5C240.005 197.083 238.91 202.612 236.776 207.77C234.642 212.929 231.511 217.616 227.564 221.564C223.616 225.511 218.929 228.642 213.77 230.776C208.612 232.91 203.083 234.005 197.5 234H42.5C36.9174 234.005 31.3885 232.91 26.2297 230.776C21.071 228.642 16.3838 225.511 12.4362 221.564C8.48871 217.616 5.35838 212.929 3.22442 207.77C1.09046 202.612 -0.00524284 197.083 1.88608e-05 191.5V42.5C-0.00524284 36.9174 1.09046 31.3885 3.22442 26.2297C5.35838 21.071 8.48871 16.3838 12.4362 12.4362C16.3838 8.48871 21.071 5.35838 26.2297 3.22442C31.3885 1.09046 36.9174 -0.00524284 42.5 1.88608e-05ZM116.3 140.4H79.1L71.5 163.9C71.4151 164.328 71.1731 164.709 70.8215 164.969C70.47 165.228 70.0343 165.346 69.6 165.3H50.8C49.7 165.3 49.4 164.7 49.7 163.5L81.9 70.8C81.9875 70.5086 82.0749 70.2086 82.1648 69.9002C82.3834 69.1503 82.6166 68.3503 82.9 67.5C83.3025 65.3568 83.5033 63.1807 83.5 61C83.4701 60.7496 83.5358 60.4971 83.6842 60.2931C83.8326 60.0891 84.0525 59.9487 84.3 59.9H110.2C111 59.9 111.4 60.2 111.5 60.7L148 163.7C148.3 164.8 148 165.3 147 165.3H126.1C125.747 165.334 125.392 165.242 125.1 165.041C124.807 164.84 124.595 164.542 124.5 164.2L116.3 140.4ZM84.9 120.1H110.3C109.7 118 108.9 115.5 108 112.9C107.1 110.3 106.2 107.3 105.3 104.3C104.4 101.3 103.4 98.2002 102.4 95.1004L102.4 95.1C101.4 92 100.5 89.1 99.7 86.2C98.9 83.3 98.2 80.8 97.5 78.4H97.3C96.4013 82.7585 95.2663 87.0648 93.9 91.3C93.329 93.1274 92.7579 94.9838 92.1813 96.8582L92.1805 96.8609C91.2428 99.9089 90.2906 103.004 89.3 106.1C87.9 111.2 86.4 115.9 84.9 120.1ZM164.998 76.1441C166.526 76.745 168.159 77.0359 169.8 77C171.479 77.1013 173.16 76.8413 174.73 76.2375C176.3 75.6337 177.722 74.7002 178.9 73.5C180.069 72.2782 180.98 70.8346 181.582 69.2544C182.183 67.6742 182.461 65.9896 182.4 64.3C182.499 61.0171 181.315 57.8248 179.1 55.4C176.9 53.1 173.9 51.9 170 51.9C166.693 51.874 163.504 53.1282 161.1 55.4C159.908 56.5472 158.972 57.9328 158.351 59.4663C157.731 60.9998 157.441 62.6469 157.5 64.3C157.389 67.693 158.609 70.9949 160.9 73.5C162.077 74.6444 163.47 75.5432 164.998 76.1441ZM158.6 86.8V163.8C158.569 164.009 158.586 164.221 158.649 164.423C158.712 164.624 158.819 164.808 158.964 164.962C159.108 165.116 159.285 165.235 159.482 165.311C159.678 165.387 159.89 165.417 160.1 165.4H179.7C180.6 165.4 181 164.9 181 163.8V86.8C181 85.9 180.6 85.4 179.7 85.4H159.9C159 85.4 158.6 85.8 158.6 86.8Z" fill="#153151"/>
</svg>
