<svg width="240" height="234" viewBox="0 0 240 234" fill="none" xmlns="http://www.w3.org/2000/svg">
<path fill-rule="evenodd" clip-rule="evenodd" d="M197.5 1.86392e-05H42.5C36.9174 -0.00524306 31.3885 1.09046 26.2298 3.22442C21.0711 5.35838 16.3838 8.48871 12.4363 12.4362C8.48873 16.3838 5.3584 21.071 3.22444 26.2297C1.09048 31.3885 -0.00522319 36.9174 3.8512e-05 42.5V191.5C-0.00522319 197.083 1.09048 202.612 3.22444 207.77C5.3584 212.929 8.48873 217.616 12.4363 221.564C16.3838 225.511 21.0711 228.642 26.2298 230.776C31.3885 232.91 36.9174 234.005 42.5 234H197.5C203.083 234.005 208.612 232.91 213.77 230.776C218.929 228.642 223.616 225.511 227.564 221.564C231.511 217.616 234.642 212.929 236.776 207.77C238.91 202.612 240.005 197.083 240 191.5V42.5C240.005 36.9174 238.91 31.3885 236.776 26.2297C234.642 21.071 231.511 16.3838 227.564 12.4362C223.616 8.48871 218.929 5.35838 213.77 3.22442C208.612 1.09046 203.083 -0.00524306 197.5 1.86392e-05ZM64.375 54.5H175.625C176.528 54.5 177.422 54.6778 178.256 55.0233C179.09 55.3688 179.848 55.8752 180.486 56.5136C181.125 57.152 181.631 57.9099 181.977 58.7441C182.322 59.5782 182.5 60.4722 182.5 61.375V172.625C182.5 173.528 182.322 174.422 181.977 175.256C181.631 176.09 181.125 176.848 180.486 177.486C179.848 178.125 179.09 178.631 178.256 178.977C177.422 179.322 176.528 179.5 175.625 179.5H143.75V130.875H160.063L162.5 112.125H143.75V100.062C143.75 94.625 145.25 90.875 153.125 90.875H163.063V74C158.227 73.4705 153.365 73.2201 148.5 73.25C145.19 73.0141 141.868 73.5052 138.768 74.689C135.667 75.8728 132.864 77.7205 130.553 80.1026C128.242 82.4847 126.481 85.3434 125.392 88.4784C124.303 91.6133 123.913 94.9485 124.25 98.25V112.312H108V131.062H124.25V179.5H64.375C63.4722 179.5 62.5782 179.322 61.7441 178.977C60.91 178.631 60.1521 178.125 59.5137 177.486C58.8753 176.848 58.3689 176.09 58.0233 175.256C57.6778 174.422 57.5 173.528 57.5 172.625V61.375C57.5 59.5516 58.2243 57.803 59.5137 56.5136C60.803 55.2243 62.5517 54.5 64.375 54.5Z" fill="#153151"/>
</svg>
