<svg width="240" height="234" viewBox="0 0 240 234" fill="none" xmlns="http://www.w3.org/2000/svg">
<path fill-rule="evenodd" clip-rule="evenodd" d="M197.5 1.88608e-05H42.5C36.9174 -0.00524284 31.3885 1.09046 26.2297 3.22442C21.071 5.35838 16.3838 8.48871 12.4362 12.4362C8.48871 16.3838 5.35838 21.071 3.22442 26.2297C1.09046 31.3885 -0.00524284 36.9174 1.88608e-05 42.5V191.5C-0.00524284 197.083 1.09046 202.612 3.22442 207.77C5.35838 212.929 8.48871 217.616 12.4362 221.564C16.3838 225.511 21.071 228.642 26.2297 230.776C31.3885 232.91 36.9174 234.005 42.5 234H197.5C203.083 234.005 208.612 232.91 213.77 230.776C218.929 228.642 223.616 225.511 227.564 221.564C231.511 217.616 234.642 212.929 236.776 207.77C238.91 202.612 240.005 197.083 240 191.5V42.5C240.005 36.9174 238.91 31.3885 236.776 26.2297C234.642 21.071 231.511 16.3838 227.564 12.4362C223.616 8.48871 218.929 5.35838 213.77 3.22442C208.612 1.09046 203.083 -0.00524284 197.5 1.88608e-05ZM120 167C120 180.807 108.807 192 95 192C81.1929 192 70 180.807 70 167C70 153.193 81.1929 142 95 142C81.1929 142 70 130.807 70 117C70 103.193 81.1929 92 95 92C81.1929 92 70 80.8071 70 67C70 53.1929 81.1929 42 95 42H120V92V142V167ZM120 42H145C158.807 42 170 53.1929 170 67C170 80.8071 158.807 92 145 92H120V42ZM145 92C158.807 92 170 103.193 170 117C170 130.807 158.807 142 145 142C131.193 142 120 130.807 120 117C120 103.193 131.193 92 145 92Z" fill="#153151"/>
</svg>
