<svg width="240" height="234" viewBox="0 0 240 234" fill="none" xmlns="http://www.w3.org/2000/svg">
<path fill-rule="evenodd" clip-rule="evenodd" d="M197.5 7.33178e-06H42.5C36.9174 -0.00525437 31.3885 1.09045 26.2298 3.22441C21.0711 5.35837 16.3838 8.4887 12.4363 12.4362C8.48873 16.3838 5.3584 21.071 3.22444 26.2297C1.09048 31.3885 -0.00522319 36.9173 3.8512e-05 42.5V191.5C-0.00522319 197.083 1.09048 202.612 3.22444 207.77C5.3584 212.929 8.48873 217.616 12.4363 221.564C16.3838 225.511 21.0711 228.642 26.2298 230.776C31.3885 232.91 36.9174 234.005 42.5 234H197.5C203.083 234.005 208.612 232.91 213.77 230.776C218.929 228.642 223.616 225.511 227.564 221.564C231.511 217.616 234.642 212.929 236.776 207.77C238.91 202.612 240.005 197.083 240 191.5V42.5C240.005 36.9173 238.91 31.3885 236.776 26.2297C234.642 21.071 231.511 16.3838 227.564 12.4362C223.616 8.4887 218.929 5.35837 213.77 3.22441C208.612 1.09045 203.083 -0.00525437 197.5 7.33178e-06ZM48.125 118.562C48.125 78.8515 80.2891 46.6875 120 46.6875C159.711 46.6875 191.875 78.8515 191.875 118.562C191.875 150.277 171.301 177.23 142.91 186.754C139.316 187.473 137.969 185.227 137.969 183.34C137.969 182.529 137.979 181.125 137.992 179.256C138.019 175.536 138.059 169.973 138.059 163.574C138.059 156.836 135.813 152.523 133.207 150.277C149.199 148.48 166 142.371 166 114.789C166 106.883 163.215 100.504 158.633 95.4726C159.352 93.6758 161.867 86.3086 157.914 76.4258C157.914 76.4258 151.895 74.4492 138.148 83.793C132.398 82.1758 126.289 81.3672 120.18 81.3672C114.07 81.3672 107.961 82.1758 102.211 83.793C88.4649 74.5391 82.4453 76.4258 82.4453 76.4258C78.4922 86.3086 81.0078 93.6758 81.7266 95.4726C77.1445 100.504 74.3594 106.973 74.3594 114.789C74.3594 142.281 91.0703 148.48 107.063 150.277C104.996 152.074 103.109 155.219 102.48 159.891C98.3477 161.777 88.0156 164.832 81.5469 153.961C80.1992 151.805 76.1563 146.504 70.4961 146.594C64.4766 146.684 68.0703 150.008 70.586 151.355C73.6406 153.062 77.1446 159.441 77.9531 161.508C79.3906 165.551 84.0625 173.277 102.121 169.953C102.121 173.881 102.159 177.656 102.186 180.279C102.2 181.676 102.211 182.747 102.211 183.34C102.211 185.227 100.863 187.383 97.2695 186.754C68.6992 177.23 48.125 150.367 48.125 118.562Z" fill="#153151"/>
</svg>
