<?xml version="1.0" encoding="UTF-8"?>
<svg xmlns="http://www.w3.org/2000/svg" version="1.1" viewBox="0 0 800 800">
  <defs>
    <style>
      .cls-1 {
        fill: #fff;
        fill-rule: evenodd;
      }
    </style>
  </defs>
  <!-- Generator: Adobe Illustrator 28.7.1, SVG Export Plug-In . SVG Version: 1.2.0 Build 142)  -->
  <g>
    <g id="Lag_1">
      <g id="Icons">
        <g id="Color-">
          <path id="Github" class="cls-1" d="M400,8.3C179.1,8.3,0,188.1,0,409.9s114.6,327.9,273.6,381c20,3.7,27.3-8.7,27.3-19.4s-.3-34.8-.6-68.3c-111.3,24.3-134.7-53.8-134.7-53.8-18.2-46.4-44.4-58.7-44.4-58.7-36.3-24.9,2.7-24.4,2.7-24.4,40.1,2.8,61.2,41.4,61.2,41.4,35.7,61.4,93.6,43.6,116.4,33.4,3.6-26,14-43.6,25.4-53.7-88.8-10.1-182.2-44.6-182.2-198.5s15.6-79.7,41.2-107.8c-4.1-10.2-17.8-51,3.9-106.3,0,0,33.6-10.8,110,41.2,31.9-8.9,66.1-13.4,100.2-13.5,34,.2,68.2,4.6,100.1,13.5,76.3-52,109.9-41.2,109.9-41.2,21.8,55.3,8.1,96.1,4,106.3,25.7,28.1,41.1,63.9,41.1,107.8,0,154.3-93.5,188.2-182.6,198.2,14.4,12.4,27.2,36.9,27.2,74.4,0,53.7-.5,97-.5,110.2s7.2,23.2,27.5,19.3c158.8-53.2,273.3-203.6,273.3-381S620.9,8.3,400,8.3"/>
        </g>
      </g>
    </g>
  </g>
</svg>