<svg width="240" height="234" viewBox="0 0 240 234" fill="none" xmlns="http://www.w3.org/2000/svg">
<path fill-rule="evenodd" clip-rule="evenodd" d="M197.5 7.33178e-06H42.5C36.9174 -0.00525437 31.3885 1.09045 26.2298 3.22441C21.0711 5.35837 16.3838 8.4887 12.4363 12.4362C8.48873 16.3838 5.3584 21.071 3.22444 26.2297C1.09048 31.3885 -0.00522493 36.9173 3.67701e-05 42.5V191.5C-0.00522493 197.083 1.09048 202.612 3.22444 207.77C5.3584 212.929 8.48873 217.616 12.4363 221.564C16.3838 225.511 21.0711 228.642 26.2298 230.776C31.3885 232.91 36.9174 234.005 42.5 234H197.5C203.083 234.005 208.612 232.91 213.77 230.776C218.929 228.642 223.616 225.511 227.564 221.564C231.511 217.616 234.642 212.929 236.776 207.77C238.91 202.612 240.005 197.083 240 191.5V42.5C240.005 36.9173 238.91 31.3885 236.776 26.2297C234.642 21.071 231.511 16.3838 227.564 12.4362C223.616 8.4887 218.929 5.35837 213.77 3.22441C208.612 1.09045 203.083 -0.00525437 197.5 7.33178e-06ZM73.375 168.187L64 51H176.5L167.125 168.187L120.25 182.25L73.375 168.187ZM89.7813 118.969L85.0938 74.4375H157.75L155.406 88.5H99.1563L101.5 104.906H153.063L148.375 149.437L120.25 158.812L92.125 149.437L89.7813 126H103.844L106.188 137.719L120.25 142.406L134.313 137.719L136.656 118.969H89.7813Z" fill="#153151"/>
</svg>
