<svg width="240" height="234" viewBox="0 0 240 234" fill="none" xmlns="http://www.w3.org/2000/svg">
<path fill-rule="evenodd" clip-rule="evenodd" d="M197.5 1.88608e-05H42.5C36.9174 -0.00524284 31.3885 1.09046 26.2297 3.22442C21.071 5.35838 16.3838 8.48871 12.4362 12.4362C8.48871 16.3838 5.35838 21.071 3.22442 26.2297C1.09046 31.3885 -0.00524284 36.9174 1.88608e-05 42.5V191.5C-0.00524284 197.083 1.09046 202.612 3.22442 207.77C5.35838 212.929 8.48871 217.616 12.4362 221.564C16.3838 225.511 21.071 228.642 26.2297 230.776C31.3885 232.91 36.9174 234.005 42.5 234H197.5C203.083 234.005 208.612 232.91 213.77 230.776C218.929 228.642 223.616 225.511 227.564 221.564C231.511 217.616 234.642 212.929 236.776 207.77C238.91 202.612 240.005 197.083 240 191.5V42.5C240.005 36.9174 238.91 31.3885 236.776 26.2297C234.642 21.071 231.511 16.3838 227.564 12.4362C223.616 8.48871 218.929 5.35838 213.77 3.22442C208.612 1.09046 203.083 -0.00524284 197.5 1.88608e-05ZM149.208 77.389C150.442 76.5649 151.892 76.125 153.375 76.125C155.364 76.125 157.272 76.9152 158.678 78.3217C160.085 79.7282 160.875 81.6359 160.875 83.625C160.875 85.1084 160.435 86.5584 159.611 87.7918C158.787 89.0251 157.616 89.9864 156.245 90.5541C154.875 91.1218 153.367 91.2703 151.912 90.9809C150.457 90.6915 149.121 89.9772 148.072 88.9283C147.023 87.8794 146.308 86.543 146.019 85.0882C145.73 83.6333 145.878 82.1253 146.446 80.7549C147.014 79.3844 147.975 78.2131 149.208 77.389ZM179.25 76.0625C181.032 80.9338 182.003 86.0644 182.125 91.25C182.5 97.875 182.5 100 182.5 117C182.5 127.466 182.358 132.294 182.249 136.005C182.18 138.322 182.125 140.204 182.125 142.75C182.003 147.936 181.032 153.066 179.25 157.938C177.677 162.114 175.202 165.891 172 169C168.905 172.204 165.122 174.661 160.937 176.188C156.079 178.024 150.943 179.017 145.75 179.125C139.125 179.5 137 179.5 120 179.5C103 179.5 100.875 179.5 94.25 179.125C89.0572 179.017 83.9209 178.024 79.0625 176.188C74.8855 174.646 71.1058 172.19 68 169C64.7964 165.905 62.3386 162.122 60.8125 157.938C58.976 153.079 57.9826 147.943 57.875 142.75C57.5 136.125 57.5 134 57.5 117C57.5 100 57.5 97.875 57.875 91.25C57.9826 86.0572 58.976 80.9209 60.8125 76.0625C62.3386 71.8777 64.7964 68.0949 68 65C71.1058 61.8098 74.8855 59.3541 79.0625 57.8125C83.9209 55.976 89.0572 54.9826 94.25 54.875C100.875 54.5 103 54.5 120 54.5C137 54.5 139.125 54.5 145.75 54.875C150.943 54.9826 156.079 55.976 160.937 57.8125C165.122 59.3386 168.905 61.7964 172 65C175.187 68.1205 177.661 71.8946 179.25 76.0625ZM168.75 153.625C170.111 149.898 170.829 145.967 170.875 142C171.187 135.75 171.25 133.438 171.25 117C171.25 100.563 171.187 98.25 170.875 92C170.858 87.9486 170.139 83.9308 168.75 80.125C167.711 77.5171 166.111 75.1699 164.062 73.25C162.014 71.0178 159.465 69.3041 156.625 68.25C152.898 66.889 148.967 66.1705 145 66.125C138.75 65.75 136.437 65.75 120 65.75C109.832 65.75 105.069 65.8935 101.436 66.0029C99.195 66.0704 97.3839 66.125 95 66.125C90.95 66.1567 86.9347 66.8753 83.125 68.25C80.4955 69.3943 78.1488 71.1011 76.25 73.25C74.1017 75.1354 72.4128 77.4869 71.3125 80.125C69.8934 83.9247 69.153 87.9441 69.125 92C68.75 98.25 68.75 100.563 68.75 117C68.75 127.168 68.8935 131.931 69.0029 135.564C69.0704 137.805 69.125 139.616 69.125 142C69.2528 146.075 70.0991 150.095 71.625 153.875C72.5928 156.595 74.1756 159.055 76.25 161.063C78.196 163.08 80.5361 164.675 83.125 165.75C87.0287 167.068 91.1306 167.702 95.25 167.625C101.5 168 103.812 168 120.25 168C136.687 168 139 167.938 145.25 167.625C149.217 167.579 153.148 166.861 156.875 165.5C159.583 164.478 162.035 162.878 164.062 160.813C166.149 158.803 167.752 156.345 168.75 153.625ZM102.204 90.3714C107.469 86.8408 113.661 84.9499 120 84.9375C124.218 84.921 128.398 85.7386 132.299 87.3433C136.2 88.948 139.745 91.3081 142.73 94.2878C145.716 97.2676 148.083 100.808 149.695 104.706C151.308 108.604 152.133 112.782 152.125 117C152.125 123.339 150.246 129.535 146.726 134.806C143.205 140.078 138.202 144.187 132.347 146.616C126.492 149.044 120.048 149.683 113.83 148.451C107.613 147.219 101.899 144.171 97.413 139.694C92.9265 135.216 89.8679 129.509 88.6237 123.293C87.3795 117.078 88.0056 110.633 90.4227 104.773C92.8399 98.9137 96.9397 93.9019 102.204 90.3714ZM108.437 134.305C111.86 136.592 115.884 137.813 120 137.813C122.733 137.813 125.44 137.274 127.965 136.228C130.49 135.182 132.784 133.649 134.717 131.717C136.649 129.784 138.182 127.49 139.228 124.965C140.274 122.44 140.812 119.733 140.812 117C140.812 112.884 139.592 108.86 137.305 105.437C135.018 102.015 131.768 99.347 127.965 97.7718C124.162 96.1965 119.977 95.7843 115.94 96.5874C111.902 97.3905 108.194 99.3727 105.283 102.283C102.373 105.194 100.39 108.902 99.5874 112.94C98.7844 116.977 99.1965 121.162 100.772 124.965C102.347 128.768 105.015 132.018 108.437 134.305Z" fill="#153151"/>
</svg>
