<svg width="240" height="234" viewBox="0 0 240 234" fill="none" xmlns="http://www.w3.org/2000/svg">
<path fill-rule="evenodd" clip-rule="evenodd" d="M42.5 7.33178e-06H197.5C203.083 -0.00525437 208.612 1.09045 213.77 3.22441C218.929 5.35837 223.616 8.4887 227.564 12.4362C231.511 16.3838 234.642 21.071 236.776 26.2297C238.91 31.3885 240.005 36.9173 240 42.5V191.5C240.005 197.083 238.91 202.612 236.776 207.77C234.642 212.929 231.511 217.616 227.564 221.564C223.616 225.511 218.929 228.642 213.77 230.776C208.612 232.91 203.083 234.005 197.5 234H42.5C36.9174 234.005 31.3885 232.91 26.2298 230.776C21.0711 228.642 16.3838 225.511 12.4363 221.564C8.48873 217.616 5.3584 212.929 3.22444 207.77C1.09048 202.612 -0.00522319 197.083 3.8512e-05 191.5V42.5C-0.00522319 36.9173 1.09048 31.3885 3.22444 26.2297C5.3584 21.071 8.48873 16.3838 12.4363 12.4362C16.3838 8.4887 21.0711 5.35837 26.2298 3.22441C31.3885 1.09045 36.9174 -0.00525437 42.5 7.33178e-06ZM54.375 51.375H185.625V182.625H54.375V51.375ZM143.726 154.142L134.063 160.536C134.856 162.469 139.615 173.25 157.572 173.25C170.94 173.25 176.25 163 176.25 156.67C176.25 144.03 168.606 140.015 163.413 137.561C162.404 137.084 161.218 136.626 159.972 136.145L159.972 136.145C155.209 134.305 149.567 132.126 149.567 127.264C149.567 125.531 150.649 121.724 155.841 121.724C157.943 121.724 161.358 123.1 163.413 127.264L172.788 120.721C167.704 111.166 157.496 110.906 155.373 110.906C152.127 110.906 137.776 112.616 137.776 127.487C137.776 140.987 149.967 145.645 153.271 146.907L153.273 146.908C153.544 147.011 153.755 147.092 153.894 147.153C154.167 147.271 154.566 147.407 155.05 147.572C158.021 148.585 164.207 150.692 164.207 156.67C164.207 158.863 161.394 162.172 155.337 162.172C149.279 162.172 144.483 156.521 143.726 154.142ZM97.2594 155.415L87.1875 161.806C88.0895 165.298 93.6516 173.25 107.031 173.25C121.582 173.25 124.88 161.36 124.679 155.415V112.312H112.292V155.415C112.292 157.607 110.015 162.177 105.565 162.177C101.115 162.177 98.0486 157.793 97.2594 155.415Z" fill="#153151"/>
</svg>
