<svg width="240" height="234" viewBox="0 0 240 234" fill="none" xmlns="http://www.w3.org/2000/svg">
<path fill-rule="evenodd" clip-rule="evenodd" d="M197.5 1.88608e-05H42.5C36.9174 -0.00524284 31.3885 1.09046 26.2297 3.22442C21.071 5.35838 16.3838 8.48871 12.4362 12.4362C8.48871 16.3838 5.35838 21.071 3.22442 26.2297C1.09046 31.3885 -0.00524284 36.9174 1.88608e-05 42.5V191.5C-0.00524284 197.083 1.09046 202.612 3.22442 207.77C5.35838 212.929 8.48871 217.616 12.4362 221.564C16.3838 225.511 21.071 228.642 26.2297 230.776C31.3885 232.91 36.9174 234.005 42.5 234H197.5C203.083 234.005 208.612 232.91 213.77 230.776C218.929 228.642 223.616 225.511 227.564 221.564C231.511 217.616 234.642 212.929 236.776 207.77C238.91 202.612 240.005 197.083 240 191.5V42.5C240.005 36.9174 238.91 31.3885 236.776 26.2297C234.642 21.071 231.511 16.3838 227.564 12.4362C223.616 8.48871 218.929 5.35838 213.77 3.22442C208.612 1.09046 203.083 -0.00524284 197.5 1.88608e-05ZM67.0625 54.5H172.937C174.128 54.4835 175.309 54.7015 176.415 55.1418C177.521 55.582 178.529 56.2358 179.383 57.0657C180.236 57.8956 180.917 58.8855 181.388 59.9788C181.858 61.0721 182.109 62.2474 182.125 63.4375V170.563C182.109 171.753 181.858 172.928 181.388 174.021C180.917 175.114 180.236 176.104 179.383 176.934C178.529 177.764 177.521 178.418 176.415 178.858C175.309 179.298 174.128 179.517 172.937 179.5H67.0625C65.8724 179.517 64.6906 179.298 63.5848 178.858C62.4789 178.418 61.4706 177.764 60.6175 176.934C59.7643 176.104 59.083 175.114 58.6124 174.021C58.1419 172.928 57.8913 171.753 57.875 170.563V63.4375C57.8913 62.2474 58.1419 61.0721 58.6124 59.9788C59.083 58.8855 59.7643 57.8956 60.6175 57.0657C61.4706 56.2358 62.4789 55.582 63.5848 55.1418C64.6906 54.7015 65.8724 54.4835 67.0625 54.5ZM76.8125 102.875V159.125H95.5625V102.875H76.8125ZM79.2932 92.1443C81.1217 93.9728 83.6016 95 86.1875 95C87.5606 95.1557 88.9511 95.0197 90.268 94.6007C91.5848 94.1818 92.7984 93.4894 93.8291 92.569C94.8598 91.6485 95.6845 90.5208 96.2492 89.2595C96.8139 87.9982 97.1057 86.6319 97.1057 85.25C97.1057 83.8681 96.8139 82.5018 96.2492 81.2405C95.6845 79.9792 94.8598 78.8515 93.8291 77.931C92.7984 77.0106 91.5848 76.3182 90.268 75.8993C88.9511 75.4803 87.5606 75.3443 86.1875 75.5C83.6016 75.5 81.1217 76.5272 79.2932 78.3557C77.4647 80.1842 76.4375 82.6641 76.4375 85.25C76.4375 87.8359 77.4647 90.3158 79.2932 92.1443ZM144.437 159.125H163.187V126.75C163.187 109.438 154.125 101.375 141.625 101.375C138.216 101.249 134.837 102.056 131.853 103.708C128.868 105.359 126.391 107.794 124.688 110.75V102.813H105.938V159.063H124.688V127.813C124.611 126.266 124.823 124.719 125.313 123.25C126.028 121.267 127.334 119.55 129.055 118.332C130.776 117.114 132.829 116.453 134.937 116.438C141.75 116.438 144.437 121.375 144.437 128.938V159.125Z" fill="#153151"/>
</svg>
