<?xml version="1.0" encoding="UTF-8"?>
<svg xmlns="http://www.w3.org/2000/svg" version="1.1" viewBox="0 0 700 700">
  <defs>
    <style>
      .cls-1 {
        fill: #fff;
      }
    </style>
  </defs>
  <!-- Generator: Adobe Illustrator 28.7.1, SVG Export Plug-In . SVG Version: 1.2.0 Build 142)  -->
  <g>
    <g id="Lag_1">
      <g id="Lag_1-2" data-name="Lag_1">
        <path class="cls-1" d="M350,0C156.7,0,0,156.7,0,350s156.7,350,350,350,350-156.7,350-350S543.3,0,350,0ZM258.5,500h-77.3v-234.3h77.3v234.3ZM220.2,234.6c-25,0-45.2-18.9-45.2-42.3s20.3-42.3,45.2-42.3,45.2,18.9,45.2,42.3-20.3,42.3-45.2,42.3ZM550,500h-77.3c0-37-.6-74.4-.4-111.1.2-28.1.5-64.3-42.2-64.3s-47.2,27.8-47.2,55.5v119.9h-77.3v-234.3h77.3v30.1c13-16.5,37.9-34.8,78.1-34.8,67.7,0,88.3,36.4,88.9,115.3v123.7h.1Z"/>
      </g>
    </g>
  </g>
</svg>