<svg width="240" height="234" viewBox="0 0 240 234" fill="none" xmlns="http://www.w3.org/2000/svg">
<path fill-rule="evenodd" clip-rule="evenodd" d="M42.5 1.87702e-05H197.5C203.083 -0.00523025 208.612 1.09047 213.77 3.22441C218.929 5.35839 223.616 8.4887 227.564 12.4362C231.511 16.3838 234.642 21.071 236.776 26.2298C238.91 31.3885 240.005 36.9173 240 42.5V191.5C240.005 197.083 238.91 202.612 236.776 207.77C234.642 212.929 231.511 217.616 227.564 221.564C223.616 225.511 218.929 228.642 213.77 230.776C208.612 232.91 203.083 234.005 197.5 234H42.5C36.9174 234.005 31.3885 232.91 26.2297 230.776C21.071 228.642 16.3838 225.511 12.4362 221.564C8.48871 217.616 5.35838 212.929 3.22442 207.77C1.09046 202.612 -0.00524284 197.083 1.88608e-05 191.5V42.5C-0.00524284 36.9173 1.09046 31.3885 3.22442 26.2298C5.35838 21.071 8.48871 16.3838 12.4362 12.4362C16.3838 8.4887 21.071 5.35839 26.2297 3.22441C31.3885 1.09047 36.9174 -0.00523025 42.5 1.87702e-05ZM54 164.1V61.2C54 60.5 54.3 60.1 55 60.1C56.7 60.1 58.3 60.1 60.6 60C61.7941 59.9481 63.069 59.9231 64.3968 59.8971H64.3971H64.3976C65.6272 59.8731 66.902 59.8481 68.2 59.8C69.5951 59.7483 71.0435 59.7234 72.5454 59.6975L72.5493 59.6974H72.5511C73.9542 59.6733 75.4038 59.6483 76.9 59.6C80 59.5 83 59.5 86 59.5C94.2 59.5 101 60.5 106.6 62.6C111.62 64.3048 116.197 67.1059 120 70.8C123.222 74.0328 125.712 77.9207 127.3 82.2C128.814 86.3674 129.592 90.7662 129.6 95.2C129.6 103.8 127.6 110.9 123.6 116.5C119.581 122.092 113.971 126.344 107.5 128.7C100.7 131.2 93.2 132.1 85 132.1C82.6 132.1 81 132.1 80 132C79 131.9 77.6 131.9 75.7 131.9V164C75.7223 164.165 75.7114 164.332 75.6678 164.492C75.6242 164.652 75.5489 164.802 75.4463 164.933C75.3437 165.063 75.2159 165.172 75.0706 165.252C74.9252 165.333 74.7652 165.383 74.6 165.4H55.2C54.4 165.4 54 165 54 164.1ZM75.8 79.4V113L76.1 113.021L76.1011 113.022C77.3868 113.114 78.5865 113.2 79.7 113.2H85C88.9039 113.205 92.7843 112.597 96.5 111.4C99.6879 110.463 102.536 108.622 104.7 106.1C106.8 103.6 107.8 100.2 107.8 95.8C107.894 92.6751 107.096 89.5881 105.5 86.9C103.833 84.3036 101.38 82.3068 98.5 81.2C94.7459 79.7297 90.729 79.0488 86.7 79.2C84.1 79.2 81.8 79.2 79.9 79.3C78.5331 79.2106 77.1609 79.2441 75.8 79.4ZM182.4 103.5C185.747 104.165 188.981 105.31 192 106.9C192.582 107.109 193.218 107.109 193.8 106.9C193.956 106.785 194.083 106.634 194.17 106.46C194.257 106.286 194.302 106.094 194.3 105.9V89.6C194.282 89.1934 194.215 88.7904 194.1 88.4C193.899 87.9794 193.539 87.6557 193.1 87.5C190.342 86.3724 187.452 85.5995 184.5 85.2C180.394 84.602 176.25 84.3012 172.1 84.3C165 84.3 159.1 85.4 154.4 87.8C150.087 89.7908 146.44 92.9856 143.9 97C141.69 100.65 140.515 104.833 140.5 109.1C140.414 112.638 141.204 116.142 142.8 119.3C144.67 122.663 147.266 125.567 150.4 127.8C154.8 130.808 159.573 133.229 164.6 135C169.5 136.9 172.8 138.4 174.4 139.7C176 141 176.8 142.3 176.8 143.7C176.796 144.584 176.54 145.449 176.062 146.193C175.583 146.937 174.903 147.529 174.1 147.9C172.3 148.8 169.6 149.3 165.8 149.3C161.819 149.307 157.853 148.803 154 147.8C149.636 146.824 145.452 145.171 141.6 142.9C141.481 142.789 141.329 142.719 141.167 142.701C141.004 142.683 140.841 142.718 140.7 142.8C140.567 142.908 140.462 143.046 140.393 143.202C140.323 143.359 140.291 143.529 140.3 143.7V161.1C140.278 161.49 140.371 161.877 140.566 162.214C140.761 162.552 141.051 162.825 141.4 163C144.643 164.514 148.073 165.591 151.6 166.2C156.079 167.083 160.635 167.518 165.2 167.5C172.4 167.5 178.4 166.4 183.3 164.3C187.819 162.485 191.711 159.392 194.5 155.4C197.121 151.466 198.481 146.827 198.4 142.1C198.497 138.529 197.707 134.99 196.1 131.8C194.2 128.418 191.484 125.565 188.2 123.5C183.372 120.469 178.203 118.019 172.8 116.2C170.4 115.2 168 114.1 165.7 112.9C164.403 112.229 163.248 111.312 162.3 110.2C161.697 109.463 161.347 108.551 161.3 107.6C161.318 106.644 161.595 105.711 162.1 104.9C162.85 103.872 163.954 103.159 165.2 102.9C167.153 102.366 169.176 102.13 171.2 102.2C174.969 102.232 178.724 102.667 182.4 103.5Z" fill="#153151"/>
</svg>
