<svg width="240" height="234" viewBox="0 0 240 234" fill="none" xmlns="http://www.w3.org/2000/svg">
<path fill-rule="evenodd" clip-rule="evenodd" d="M197.5 7.33178e-06H42.5C36.9174 -0.00525437 31.3885 1.09045 26.2298 3.22441C21.0711 5.35837 16.3838 8.4887 12.4363 12.4362C8.48873 16.3838 5.3584 21.071 3.22444 26.2297C1.09048 31.3885 -0.00522319 36.9173 3.8512e-05 42.5V191.5C-0.00522319 197.083 1.09048 202.612 3.22444 207.77C5.3584 212.929 8.48873 217.616 12.4363 221.564C16.3838 225.511 21.0711 228.642 26.2298 230.776C31.3885 232.91 36.9174 234.005 42.5 234H197.5C203.083 234.005 208.612 232.91 213.77 230.776C218.929 228.642 223.616 225.511 227.564 221.564C231.511 217.616 234.642 212.929 236.776 207.77C238.91 202.612 240.005 197.083 240 191.5V42.5C240.005 36.9173 238.91 31.3885 236.776 26.2297C234.642 21.071 231.511 16.3838 227.564 12.4362C223.616 8.4887 218.929 5.35837 213.77 3.22441C208.612 1.09045 203.083 -0.00525437 197.5 7.33178e-06ZM155.017 57.8914C166.768 64.4601 163.435 83.8349 160.783 94.283C171.517 97.2763 190.313 103.798 190.313 116.887C190.313 129.901 171.597 136.786 161.087 139.793C163.798 150.367 166.855 169.483 155.12 176.069C143.422 182.635 128.348 170.374 120.26 162.807C112.149 170.412 96.5497 182.593 84.7654 176.005C73.0592 169.457 76.484 150.676 79.2046 140.104C68.3633 137.104 49.6875 130.066 49.6875 116.887C49.6875 103.671 68.3827 97.2019 79.2886 94.1985C76.578 83.685 72.9727 64.6314 84.6639 58.0694C96.4048 51.4798 112.052 63.9582 120.065 71.4055C128.102 63.8832 143.322 51.3513 155.017 57.8914ZM152.33 116.916C155.269 122.917 157.671 128.726 159.451 134.189C167.741 131.806 184.306 126.703 184.306 116.887C184.306 107.162 167.043 102.107 159.174 99.8948C157.444 105.323 155.135 111.057 152.33 116.916ZM124.443 158.629C130.416 164.201 143.381 175.927 152.109 171.028C160.876 166.108 157.184 148.75 155.276 141.271C149.452 142.576 143.029 143.532 136.23 144.117C132.366 149.542 128.406 154.427 124.443 158.629ZM85.0292 141.531C83.0277 149.319 79.038 166.078 87.767 170.958C96.5368 175.861 110.978 163.41 116.051 158.651C111.945 154.379 107.87 149.499 103.98 144.191C97.1652 143.655 90.7891 142.766 85.0292 141.531ZM80.9018 99.8091C72.8535 102.016 55.6945 107.034 55.6945 116.887C55.6945 126.746 73.1423 132.364 80.8165 134.494C82.5927 128.879 84.934 122.984 87.7558 117.029C84.9701 111.161 82.6618 105.359 80.9018 99.8091ZM115.856 75.5631C110.038 70.1711 96.4383 58.1914 87.6736 63.1103C78.9184 68.024 82.9278 84.2846 85.1114 92.7642C90.9317 91.4855 97.2629 90.5309 103.877 89.9365C107.733 84.659 111.771 79.8166 115.856 75.5631ZM153.35 98.4405C149.314 97.5469 145.015 96.8167 140.528 96.2676C143.503 100.789 146.271 105.437 148.849 110.181C150.628 106.144 152.138 102.206 153.35 98.4405ZM128.343 89.4116C125.613 85.8858 122.838 82.6358 120.067 79.7255C117.253 82.6696 114.454 85.9147 111.722 89.4079C117.259 89.1567 122.806 89.1579 128.343 89.4116ZM86.7339 98.379C87.9562 102.199 89.4529 106.154 91.2024 110.177C93.7364 105.415 96.4998 100.768 99.4828 96.2568C95.0249 96.7968 90.7462 97.5082 86.7339 98.379ZM86.6511 135.913C90.6622 136.759 95.0056 137.435 99.611 137.933C96.5835 133.379 93.7783 128.687 91.2092 123.876C89.4224 127.985 87.8927 132.026 86.6511 135.913ZM111.772 144.643C114.546 148.186 117.386 151.481 120.233 154.46C122.985 151.522 125.751 148.223 128.489 144.614C122.921 144.855 117.341 144.855 111.772 144.643ZM153.629 135.661C152.371 131.839 150.786 127.82 148.907 123.666C146.32 128.501 143.508 133.222 140.511 137.829C145.149 137.289 149.551 136.563 153.629 135.661ZM107.268 138.583C115.789 139.119 124.36 139.125 132.878 138.535C137.623 131.624 141.924 124.412 145.667 116.944C141.879 109.54 137.607 102.361 132.829 95.5152C124.302 94.8851 115.723 94.8865 107.196 95.5115C102.377 102.358 98.0979 109.556 94.3957 117.027C98.1162 124.514 102.426 131.726 107.268 138.583ZM154.966 92.8245C156.882 85.2528 160.784 67.84 152.017 62.9372C143.335 58.0823 130.17 70.0519 124.277 75.5601C128.296 79.7587 132.3 84.6096 136.164 89.9444C142.797 90.5478 149.132 91.5193 154.966 92.8245ZM120 104.712C126.936 104.712 132.557 110.163 132.557 116.887C132.557 123.612 126.936 129.063 120 129.063C113.065 129.063 107.443 123.612 107.443 116.887C107.443 110.163 113.065 104.712 120 104.712Z" fill="#153151"/>
</svg>
