<svg width="240" height="234" viewBox="0 0 240 234" fill="none" xmlns="http://www.w3.org/2000/svg">
<path fill-rule="evenodd" clip-rule="evenodd" d="M197.5 7.33178e-06H42.5C36.9174 -0.00525437 31.3885 1.09045 26.2298 3.22441C21.0711 5.35837 16.3838 8.4887 12.4363 12.4362C8.48873 16.3838 5.3584 21.071 3.22444 26.2297C1.09048 31.3885 -0.00522493 36.9174 3.67701e-05 42.5V191.5C-0.00522493 197.083 1.09048 202.612 3.22444 207.77C5.3584 212.929 8.48873 217.616 12.4363 221.564C16.3838 225.511 21.0711 228.642 26.2298 230.776C31.3885 232.91 36.9174 234.005 42.5 234H197.5C203.083 234.005 208.612 232.91 213.77 230.776C218.929 228.642 223.616 225.511 227.564 221.564C231.511 217.616 234.642 212.929 236.776 207.77C238.91 202.612 240.005 197.083 240 191.5V42.5C240.005 36.9174 238.91 31.3885 236.776 26.2297C234.642 21.071 231.511 16.3838 227.564 12.4362C223.616 8.4887 218.929 5.35837 213.77 3.22441C208.612 1.09045 203.083 -0.00525437 197.5 7.33178e-06ZM143.446 56.6097V87.3864L104.136 117.124L143.446 146.862L143.446 56.61L143.446 56.6097ZM46.1701 136.046L66.817 117.124L46.1701 98.2024C44.6968 96.8522 44.6019 94.554 45.9588 93.0857L54.6201 83.7135C55.8713 82.3597 57.9385 82.1753 59.4075 83.2866L83.6927 101.659L136.782 53.0046L136.783 53.0044C139.653 50.7388 143.019 51.2882 144.215 51.9748L171.933 65.5662C174.575 66.8613 176.25 69.5559 176.25 72.5089V161.921C176.25 164.913 174.53 167.637 171.835 168.911L145.752 181.244L145.62 181.301L145.482 181.362C143.588 182.188 139.906 183.794 136.782 181.244L83.6927 132.59L59.4075 150.962C57.9385 152.073 55.8713 151.889 54.6201 150.535L45.9588 141.163C44.6019 139.694 44.6968 137.396 46.1701 136.046ZM136.791 53.0025L137.106 52.9324C136.996 52.9543 136.891 52.9778 136.791 53.0025Z" fill="#153151"/>
</svg>
